HIERARCHY
ROOT Hips
{
	OFFSET	0	0	0
	CHANNELS 6  Xposition Yposition Zposition Xrotation Yrotation Zrotation
	JOINT Spine
	{
		OFFSET	0	7.09727	1.42491
		CHANNELS 3  Xrotation Yrotation Zrotation
		JOINT Spine1
		{
			OFFSET	0	12.1515	-2.16991
			CHANNELS 3  Xrotation Yrotation Zrotation
			JOINT Spine2
			{
				OFFSET	0	9.21125	0.987307
				CHANNELS 3  Xrotation Yrotation Zrotation
				JOINT Spine3
				{
					OFFSET	0	11.0231	3.27656
					CHANNELS 3  Xrotation Yrotation Zrotation
					JOINT Spine4
					{
						OFFSET	0	16.3177	-1.67083
						CHANNELS 3  Xrotation Yrotation Zrotation
						JOINT Neck
						{
							OFFSET	0	7.78996	-5.45731
							CHANNELS 3  Xrotation Yrotation Zrotation
							JOINT Head
							{
								OFFSET	0	9.35229	-2.79918
								CHANNELS 3  Xrotation Yrotation Zrotation
								End Site
								{
									OFFSET	0	19.5075	-0.943909
								}
							}
						}
					}
					JOINT LeftShoulder
					{
						OFFSET	-4.687	19.8329	-9.3523
						CHANNELS 3  Xrotation Yrotation Zrotation
						JOINT LeftArm
						{
							OFFSET	-10.2164	-2.79918	3.59122
							CHANNELS 3  Xrotation Yrotation Zrotation
							JOINT LeftForeArm
							{
								OFFSET	-30.9138	-1.41096	2.20659
								CHANNELS 3  Xrotation Yrotation Zrotation
								JOINT LeftHand
								{
									OFFSET	-25.9068	-1.7903	1.8492
									CHANNELS 3  Xrotation Yrotation Zrotation
									End Site
									{
										OFFSET	-9.45469	-0.653372	0.674821
									}
								}
							}
						}
					}
					JOINT RightShoulder
					{
						OFFSET	4.687	19.8329	-9.3523
						CHANNELS 3  Xrotation Yrotation Zrotation
						JOINT RightArm
						{
							OFFSET	10.2164	-2.79918	3.59122
							CHANNELS 3  Xrotation Yrotation Zrotation
							JOINT RightForeArm
							{
								OFFSET	30.9138	-1.41096	2.20659
								CHANNELS 3  Xrotation Yrotation Zrotation
								JOINT RightHand
								{
									OFFSET	25.9068	-1.7903	1.8492
									CHANNELS 3  Xrotation Yrotation Zrotation
									End Site
									{
										OFFSET	9.45469	-0.653372	0.674821
									}
								}
							}
						}
					}
				}
			}
		}
	}
	JOINT LeftUpLeg
	{
		OFFSET	-9.67573	-3.54864	-0.712453
		CHANNELS 3  Xrotation Yrotation Zrotation
		JOINT LeftLeg
		{
			OFFSET	-2.14499	-42.0303	-0.657025
			CHANNELS 3  Xrotation Yrotation Zrotation
			JOINT LeftFoot
			{
				OFFSET	-2.09953	-38.701	3.32829
				CHANNELS 3  Xrotation Yrotation Zrotation
				JOINT LeftToeBase
				{
					OFFSET	0	-4.7778	-12.6898
					CHANNELS 3  Xrotation Yrotation Zrotation
					End Site
					{
						OFFSET	0	-1.91111	-7.64447
					}
				}
			}
		}
	}
	JOINT RightUpLeg
	{
		OFFSET	9.67573	-3.54864	-0.712453
		CHANNELS 3  Xrotation Yrotation Zrotation
		JOINT RightLeg
		{
			OFFSET	2.14499	-42.0303	-0.657025
			CHANNELS 3  Xrotation Yrotation Zrotation
			JOINT RightFoot
			{
				OFFSET	2.09953	-38.701	3.32829
				CHANNELS 3  Xrotation Yrotation Zrotation
				JOINT RightToeBase
				{
					OFFSET	0	-4.7778	-12.6898
					CHANNELS 3  Xrotation Yrotation Zrotation
					End Site
					{
						OFFSET	0	-1.91111	-7.64447
					}
				}
			}
		}
	}
}
MOTION
Frames: 16
Frame Time: 0.020408
 -89.7843 85.3414 151.38 19.9299 -56.7754 11.7033 1.12265e-05 -0.00520791 0.123511 176.881 -179.99 -179.794 176.68 -179.969 -179.794 177.316 -179.995 -179.876 0.369752 0.000265686 0.0411694 4.23029 -7.47611 -0.608942 1.23251 -11.4769 -0.970522 174.64 -151.992 168.295 44.0076 22.4321 10.366 87.6936 162.967 103.922 -0 1.74232 -3.98851 178.118 169.911 -176.095 54.3122 6.46198 -3.02454 80.2435 23.8156 -62.9447 -0 -16.1582 3.29845 10.4204 -5.24676 6.27788 138.951 171.963 -179.954 17.7275 -0.377944 3.78027 4.51255 0 0 173.247 169.416 -160.365 149.552 -160.291 178.361 16.1453 0.141428 -18.7425 3.60433 0 0
 -90.1029 85.7305 150.701 20.1494 -58.3655 12.0931 180 180 -179.891 176.913 179.999 -179.818 176.73 179.997 -179.818 177.393 180 -179.891 0.251801 0.000160106 0.036431 3.87386 -7.56092 -0.462456 1.12136 -11.8438 -0.95899 174.549 -152.085 168.095 43.4073 22.429 10.9001 87.141 163.884 106.432 -0 2.08486 -3.27842 178.515 171.474 -176.947 51.8635 6.21575 -4.65734 81.5656 23.8693 -65.5144 -0 -16.2585 1.74765 9.65897 -5.10608 6.75268 140.401 171.473 -179.914 17.4439 -0.099493 3.13856 4.5223 0 0 173.45 169.265 -159.749 151.269 -160.437 178.409 14.4196 0.223294 -18.6381 3.60027 0 0
 -90.2743 86.1617 150.107 20.454 -59.7406 12.4651 3.50355e-05 -0.0162893 0.123233 176.921 -179.967 -179.795 176.746 -179.902 -179.795 177.42 -179.984 -179.877 0.204637 0.000146713 0.0410774 3.74206 -7.16907 0.331484 1.07901 -12.1341 -0.740179 174.278 -152.219 167.495 41.0641 22.6537 11.9622 86.6095 164.893 109.41 -0 1.88093 -2.81111 179.233 173.264 -178.44 48.9915 5.39591 -6.89173 83.2778 24.0485 -69.2915 -0 -16.2949 0.210352 8.78276 -5.27307 7.26244 142.01 171.01 -179.841 17.0214 0.18165 2.65948 4.5091 0 0 173.529 169.327 -159.353 152.975 -160.762 178.586 12.8817 0.187716 -18.8665 3.5916 0 0
 -90.478 86.6205 149.745 20.734 -61.6053 12.8199 3.19242e-05 -0.0136114 0.134381 176.952 -179.973 -179.776 176.774 -179.918 -179.776 177.434 -179.986 -179.866 0.230242 0.000180003 0.0447934 3.81494 -7.57181 0.41769 1.09562 -12.8858 -0.764947 174.136 -152.24 167.181 38.4412 22.8468 13.1506 86.1868 165.892 112.318 -0 1.5648 -2.7208 179.78 174.413 -179.557 46.4052 5.06743 -8.78116 84.9216 24.0869 -73.0252 -0 -16.147 -1.37283 7.86574 -5.25598 7.43578 144.023 170.517 -179.423 16.4419 0.548686 2.25257 4.47816 0 0 174.382 169.067 -159.187 154.19 -161.141 179.032 11.3172 0.306196 -19.1389 3.58972 0 0
 -90.606 87.0162 149.317 21.3653 -63.3772 13.6089 0.000150749 -0.0513908 0.16807 176.932 -179.897 -179.72 176.753 -179.692 -179.72 177.415 -179.949 -179.832 0.234894 0.000229677 0.0560229 3.87518 -7.95293 0.451231 1.1088 -13.5426 -0.799393 174.003 -152.071 166.886 36.2903 23.2053 13.9601 85.7652 166.937 115.818 -0 1.41019 -2.76322 0.38408 4.45238 -0.768168 43.2038 4.28771 -11.1843 86.2203 24.0489 -76.1932 -0 -16.1977 -2.88558 6.96537 -5.92789 8.12049 145.829 169.918 -179.72 15.9976 1.09464 1.9559 4.46171 0 0 175.183 168.835 -159.14 155.093 -161.297 179.187 9.84791 0.42373 -18.9687 3.58726 0 0
 -90.9544 87.446 149.058 22.9137 -65.6171 15.3852 0.000226556 -0.0783727 0.165627 176.752 -179.843 -179.724 176.615 -179.53 -179.724 177.418 -179.922 -179.834 179.889 -180 -179.945 3.06722 -8.05686 0.604643 0.858183 -14.0022 -0.810487 174.139 -151.97 167.188 34.6682 23.3346 14.7571 85.3525 168.109 119.362 -0 1.83033 -2.99832 0.582317 4.0497 -1.16121 38.9992 3.41781 -14.2879 87.168 24.1512 -78.4236 -0 -16.1836 -4.35722 5.9336 -6.44159 8.39319 147.719 169.18 -179.653 15.355 1.6044 1.56162 4.45872 0 0 176.685 168.62 -159.415 155.668 -161.415 179.372 7.92862 0.652522 -17.9775 3.60085 0 0
 -91.2481 88.0764 148.917 25.5366 -68.7426 18.4952 9.83119e-05 -0.0382201 0.147379 176.537 -179.924 -179.754 176.39 -179.771 -179.754 177.248 -179.962 -179.853 179.879 -180 -179.951 3.23543 -7.63978 1.12076 0.912443 -13.8744 -0.639038 174.471 -152.139 167.921 32.6867 24.1763 15.7265 84.9406 169.324 123.362 -0 2.29256 -3.04442 0.91862 4.30896 -1.83567 34.7055 2.57138 -18.2034 87.7822 24.153 -80.0779 -0 -16.0628 -6.06706 4.43977 -6.28691 8.077 150.407 168.28 -179.57 14.297 1.6188 0.991267 4.50184 0 0 179.875 169.245 -160.892 156.05 -160.61 178.686 5.26477 -0.211369 -15.8175 3.56848 0 0
 -91.8134 88.3572 148.936 29.3823 -71.8166 22.6417 0.000236967 -0.0710132 0.191192 176.134 -179.858 -179.681 176.055 -179.574 -179.681 177.18 -179.929 -179.809 179.278 -179.999 -179.936 1.89803 -7.73213 1.06093 0.500737 -14.1143 -0.720311 174.59 -152.029 168.185 29.9482 25.1427 16.6108 84.7881 170.421 126.898 -0 2.64055 -3.45273 1.10196 5.16315 -2.21601 30.8777 2.15184 -22.2663 88.3737 24.1213 -81.4552 -0 -15.9303 -7.83803 3.8193 -6.03758 7.90634 151.709 166.126 -179.274 13.6483 1.78226 1.27699 4.47566 0 0 1.82643 11.2748 18.4561 156.562 -161.216 179.289 3.42056 0.339066 -15.7004 3.56283 0 0
 -92.0225 88.6272 148.877 34.939 -74.9037 28.3073 0.000468425 -0.0976061 0.274968 175.781 -179.805 -179.542 175.716 -179.414 -179.542 176.983 -179.902 -179.725 179.069 -179.999 -179.908 1.60921 -7.3283 1.06071 0.418986 -13.4664 -0.681143 174.779 -151.693 168.605 26.7912 25.856 17.6202 84.7475 171.557 130.926 -0 2.60307 -3.71157 1.19424 6.6691 -2.4267 27.913 1.07776 -27.0359 88.3277 24.1497 -81.2995 -0 -15.7418 -9.04948 2.74956 -5.36164 7.93349 153.477 163.319 -179.254 13.0244 1.51502 1.83076 4.45782 0 0 3.63714 11.8023 17.7942 156.978 -161.787 179.859 1.85425 0.779447 -15.3194 3.55974 0 0
 -92.1122 88.8819 149.025 42.4063 -77.5593 35.9943 0.000673521 -0.107741 0.358169 175.443 -179.785 -179.403 175.401 -179.354 -179.403 176.822 -179.892 -179.642 178.807 -179.998 -179.881 1.13609 -6.77034 0.675294 0.286182 -12.1564 -0.710902 175.102 -151.739 169.316 22.4434 26.393 19.3892 84.8684 172.457 133.396 -0 1.9542 -4.33638 1.07377 7.47249 -2.19313 24.4839 -0.179283 -31.4972 88.108 24.2202 -81.3695 -0 -15.9156 -9.83311 1.72567 -4.73947 7.81196 155.172 160.541 -179.45 12.3931 1.25633 2.65967 4.43726 0 0 5.44121 12.2808 16.724 157.087 -162.06 -179.672 0.590753 1.32105 -14.6644 3.55911 0 0
 -92.1399 89.1033 149.314 53.1837 -79.7032 47.4282 0.000860294 -0.117652 0.418952 175.227 -179.765 -179.302 175.136 -179.294 -179.302 176.526 -179.882 -179.581 179.085 -179.998 -179.86 2.09341 -6.39106 -0.188157 0.59035 -10.4663 -0.816826 175.67 -151.866 170.562 18.2317 27.0295 21.3796 85.1766 173.147 135.483 -0 1.26497 -4.89861 1.17269 8.20887 -2.40626 21.0417 -1.34874 -36.2577 87.7385 24.5851 -80.5523 -0 -16.3422 -10.0368 0.624926 -3.95675 7.12306 156.593 159.868 -179.727 12.0563 1.42177 2.87009 4.44902 0 0 7.48144 11.6958 15.1598 156.956 -162.312 -179.56 179.39 178.147 166.891 3.58028 0 0
 -91.8944 89.339 149.132 64.6331 -80.9046 58.8865 0.00222976 -0.219811 0.581191 175.004 -179.56 -179.031 174.897 -178.681 -179.031 176.3 -179.78 -179.419 179.188 -179.997 -179.806 2.54291 -6.95474 -2.11528 0.74293 -9.18971 -1.29388 176.275 -152.456 171.888 14.0657 27.2366 23.4339 85.5677 173.806 136.445 -0 0.612876 -5.43765 0.780598 8.80627 -1.60712 16.7807 -2.14735 -40.5503 87.2558 25.2118 -79.7132 -0 -17.1182 -10.0279 179.188 -177.586 -172.681 158.231 160.251 -179.999 11.851 1.75435 3.03894 4.36821 0 0 8.68085 9.94524 14.4516 157.499 -162.774 -178.763 178.423 177.55 167.31 3.582 0 0
 -91.594 89.4833 149.205 83.208 -81.7702 77.8862 0.00272556 -0.23689 0.659194 174.8 -179.526 -178.901 174.683 -178.579 -178.901 176.125 -179.763 -179.341 179.209 -179.997 -179.78 2.73785 -7.38539 -3.37508 0.818615 -8.44488 -1.61709 177.082 -153.791 173.652 9.6163 26.9078 26.06 86.0916 174.164 135.706 -0 -0.379098 -6.16393 0.460967 10.89 -0.959938 12.7188 -1.70197 -44.2514 86.027 26.2278 -76.9982 -0 -18.3229 -9.60116 177.718 -178.552 -172.906 159.682 160.486 179.785 11.8921 1.87429 2.84472 4.40373 0 0 11.0241 7.03534 13.3771 156.892 -162.642 -178.888 177.336 177.698 169.573 3.60636 0 0
 -91.3357 89.6012 149.229 112.096 -81.183 107.001 0.00182326 -0.129041 0.809497 174.556 -179.742 -178.651 174.466 -179.226 -178.651 176.06 -179.871 -179.191 178.904 -179.995 -179.73 2.01514 -7.45399 -4.5705 0.622136 -7.39613 -1.90217 177.785 -154.826 175.188 5.30743 26.3235 28.9762 86.5426 174.442 134.793 -0 -1.45656 -6.61875 0.347594 12.3766 -0.729155 8.58691 -1.14232 -47.5324 84.5673 27.1146 -74.463 -0 -19.6104 -9.29054 176.19 -179.8 -172.747 160.882 160.504 179.694 12.0072 2.04784 2.61237 4.43889 0 0 13.8969 3.34605 11.6786 155.957 -161.522 -179.7 177.023 178.704 172.867 3.56994 0 0
 -91.1034 89.6092 149.45 127.638 -79.8549 122.749 0.00282975 -0.174332 0.929945 174.369 -179.651 -178.45 174.347 -178.954 -178.45 176.118 -179.826 -179.07 178.411 -179.991 -179.69 0.71844 -7.88644 -5.77321 0.251444 -7.17631 -2.24102 178.451 -155.527 176.638 0.40732 25.0887 32.1673 86.7842 174.879 136.173 -0 -3.02379 -6.17695 0.552808 13.5326 -1.16574 5.96259 -0.100451 -50.376 83.3598 28.1146 -72.2722 -0 -21.0886 -8.79143 175.233 178.521 -172.826 161.569 160.709 179.598 12.2668 2.07238 2.72128 4.41054 0 0 15.1265 1.84402 11.0499 155.692 -161.989 -179.596 176.859 178.072 174.163 3.57267 0 0
 -91.0918 89.5948 149.728 138.703 -77.9158 133.947 0.0038048 -0.200412 1.08762 174.182 -179.599 -178.187 174.194 -178.798 -178.187 176.077 -179.8 -178.912 178.148 -179.988 -179.638 0.0805559 -7.90023 -6.6334 0.0791372 -6.47637 -2.43794 178.943 -156.007 177.709 175.811 156.943 -144.431 87.0055 175.269 137.567 -0 -4.67642 -5.58796 0.691505 14.1703 -1.4622 3.67878 0.916061 -52.2927 81.7021 28.9932 -69.8656 -0 -22.3881 -8.25101 174.45 176.544 -173.038 161.986 160.877 179.743 12.4327 2.20411 2.92527 4.36989 0 0 16.1779 0.787473 10.2514 155.563 -162.482 -179.381 176.629 177.384 175.384 3.56614 0 0
